<svg id="Layer_1" enable-background="new 0 0 511.988 511.988" height="512" viewBox="0 0 511.988 511.988" width="512" xmlns="http://www.w3.org/2000/svg"><g><g><g><g><path d="m67.576 363.719c-59.432-88.835-96.15-185.402-5.378-246.22l19.724-13.215 48.095 71.89-19.724 13.215c-46.097 30.886-30.7 85.934 6.414 141.411l.122.183c37.115 55.477 82.108 90.695 128.205 59.81l13.395-8.577 54.424 67.252-19.724 13.215c-94.928 63.604-174.994-23.31-225.553-98.964z" fill="#ff5e57"/><g fill="#f7372f"><path d="m258.431 382.216-13.395 8.577c-2.166 1.451-4.33 2.756-6.491 3.921l44.31 54.754-19.724 13.215c-17.668 11.838-34.82 18.455-51.364 20.908 25.505 3.742 52.758-1.742 81.364-20.908l19.724-13.215z"/><path d="m100.017 176.174-19.724 13.215c-46.097 30.885-30.7 85.934 6.414 141.411l.122.183c31.652 47.312 69.035 79.879 107.945 69.287-27.983-7.364-54.532-34.29-77.945-69.287l-.122-.183c-37.115-55.477-52.512-110.525-6.414-141.411l19.724-13.215-48.096-71.89-19.724 13.215c-.334.224-.65.453-.981.678z"/></g><g><path d="m174.988 171.479s-23.911 15.623-34.54 22.744c-18.6 12.462-49.672-1.341-69.401-30.831s-20.644-63.498-2.044-75.96c12.179-8.16 34.54-22.744 34.54-22.744z" fill="#de2a2e"/><ellipse cx="139.266" cy="118.084" fill="#ff5e57" rx="40.539" ry="64.243" transform="matrix(.831 -.556 .556 .831 -42.136 97.295)"/></g><g><path d="m356.893 443.379s-23.911 15.623-34.54 22.744c-18.6 12.462-49.672-1.341-69.401-30.831s-20.644-63.498-2.044-75.96c12.179-8.16 34.54-22.744 34.54-22.744z" fill="#de2a2e"/><ellipse cx="321.171" cy="389.984" fill="#ff5e57" rx="40.539" ry="64.243" transform="matrix(.831 -.556 .556 .831 -162.554 244.217)"/></g></g><g><path d="m373.895 27.251c-72.125 0-130.593 58.344-130.593 130.314 0 29.782 10.013 57.23 26.862 79.177.586.763.79 1.752.541 2.681l-7.754 28.875c-.615 2.289 1.477 4.385 3.765 3.773l29.986-8.018c.877-.235 1.809-.064 2.555.455 21.156 14.73 46.885 23.371 74.639 23.371 72.125 0 130.593-58.344 130.593-130.314s-58.469-130.314-130.594-130.314z" fill="#fff6db"/><g><path d="m373.895 27.251c-5.074 0-10.077.299-15 .861 65.059 7.425 115.593 62.546 115.593 129.453 0 66.913-50.543 122.037-115.609 129.455 4.928.563 9.937.859 15.016.859 72.125 0 130.593-58.343 130.593-130.314s-58.468-130.314-130.593-130.314z" fill="#ffeebd"/></g><path d="m448.935 131.571h-48.991v-48.886h-52.098v48.886h-48.991v51.987h48.991v48.886h52.098v-48.886h48.991z" fill="#ff5e57"/></g></g></g><g fill="#060606"><path d="m361.083 363.248c-10.319-15.425-23.926-27.439-38.313-33.83-13.221-5.873-28.84-7.319-41.419.889-.224.146-22.54 14.703-34.618 22.796-11.466 7.682-17.043 21.395-16.761 37.434-16.884 7.24-34.059 5.291-52.388-5.919-41.077-25.12-79.973-83.263-87.336-130.824-3.339-21.568 1.744-38.381 15.52-51.295 6.504 2.562 12.837 3.844 18.797 3.844 7.388 0 14.204-1.966 20.057-5.888 10.471-7.015 34.229-22.54 34.468-22.696.011-.007.02-.015.03-.022.014-.009.028-.017.042-.026 22.376-14.993 22.382-52.928.015-86.362-10.319-15.424-23.926-27.438-38.312-33.83-15.465-6.868-30.124-6.569-41.314.828-.035.021-.071.039-.105.061-.224.146-22.54 14.703-34.617 22.796-11.427 7.656-17.006 21.299-16.765 37.265-37.731 29.36-53.375 68.379-46.481 116.036 6.785 46.908 31.394 90.328 57.077 129.315 26.506 40.236 57.623 80.693 98.979 106.664 23.094 14.503 46.188 21.754 69.127 21.754 20.648 0 41.17-5.884 61.434-17.641 6.319 2.426 12.472 3.645 18.271 3.645 7.388 0 14.204-1.966 20.057-5.888 10.471-7.017 34.229-22.54 34.467-22.696.01-.006.018-.014.027-.02.015-.01.031-.018.045-.028 22.377-14.993 22.384-52.928.016-86.362.001.001 0 .001 0 0zm-287.904-269.585c2.894-1.939 6.386-4.256 10.019-6.655-1.492 11.465.383 24.792 5.884 38.446 3.623 8.994 17.537 3.39 13.913-5.605-8.548-21.218-6.605-41.339 4.723-48.93 6.778-4.541 16.388-4.433 27.058.308 11.83 5.255 23.171 15.363 31.935 28.462 17.1 25.561 18.982 55.574 4.115 65.552-.014.009-.018.012-.038.025-11.594 7.736-31.23 1.547-47.768-15.066-6.842-6.872-17.473 3.709-10.631 10.582 10.558 10.605 22.216 17.668 33.47 20.849-3.629 2.396-7.005 4.634-9.584 6.362-6.778 4.54-16.388 4.432-27.058-.308-11.83-5.255-23.171-15.363-31.935-28.464-17.106-25.566-18.985-55.589-4.103-65.558zm92.438 364.119c-30.332-19.049-60.361-51.18-91.808-98.233-69.816-104.357-77.408-175.817-23.352-223.597 2.632 10.424 7.415 21.233 14.357 31.61 7.587 11.341 16.953 20.827 27.097 27.601-14.747 15.866-20.294 36.315-16.484 60.923 8.033 51.9 49.532 113.929 94.333 141.327 13.524 8.271 26.937 12.41 40.128 12.409 7.415 0 14.761-1.316 22.014-3.934 2.509 11.025 7.437 22.543 14.817 33.574 7.224 10.799 16.062 19.917 25.648 26.613-35.258 17.344-70.302 14.595-106.75-8.293zm152.562 2.111c-10.657 7.138-20.021 3.168-29.163-1.299-11.093-5.421-21.587-15.151-29.83-27.472-17.104-25.566-18.983-55.588-4.103-65.559 2.861-1.917 6.307-4.203 9.895-6.573-2.205 17.133 3.212 38.195 16.281 57.729 10.319 15.426 23.926 27.44 38.313 33.832 2.757 1.225 5.488 2.219 8.178 2.989-3.624 2.392-6.995 4.627-9.571 6.353zm34.543-22.747c-.005.003-.005.003-.011.007-6.778 4.535-16.384 4.426-27.051-.311-11.83-5.256-23.171-15.364-31.935-28.465-17.104-25.566-18.983-55.588-4.103-65.559 8.118-5.438 18.736-3.39 27.058.307 11.83 5.256 23.171 15.364 31.935 28.464v-.001c17.104 25.566 18.984 55.585 4.107 65.558z"/><path d="m373.895 19.751c-76.145 0-138.093 61.823-138.093 137.814 0 29.847 9.362 58.151 27.098 82.003l-7.193 26.786c-2.073 7.722 5.217 15.033 12.946 12.962l28.014-7.49c22.851 15.416 49.507 23.553 77.228 23.553 26.086 0 51.496-7.304 73.483-21.121 8.211-5.16.233-17.853-7.981-12.701-19.593 12.313-42.243 18.822-65.501 18.822-25.33 0-49.658-7.616-70.351-22.023-2.566-1.788-5.767-2.355-8.78-1.547l-22.584 6.038 5.768-21.479c.847-3.155.161-6.591-1.836-9.193-16.558-21.566-25.31-47.366-25.31-74.608 0-67.72 55.219-122.814 123.093-122.814s123.093 55.095 123.093 122.814c0 29.147-10.421 57.409-29.343 79.577-6.295 7.375 5.114 17.115 11.409 9.738 21.238-24.881 32.934-56.601 32.934-89.315-.001-75.993-61.949-137.816-138.094-137.816z"/><path d="m448.935 124.072h-41.491v-41.387c0-4.143-3.358-7.5-7.5-7.5h-52.098c-4.142 0-7.5 3.357-7.5 7.5v41.387h-41.491c-4.142 0-7.5 3.357-7.5 7.5v51.986c0 4.143 3.358 7.5 7.5 7.5h41.491v41.386c0 4.143 3.358 7.5 7.5 7.5h52.098c4.142 0 7.5-3.357 7.5-7.5v-41.386h41.491c4.142 0 7.5-3.357 7.5-7.5v-51.986c0-4.143-3.358-7.5-7.5-7.5zm-7.5 51.986h-41.491c-4.142 0-7.5 3.357-7.5 7.5v41.386h-37.098v-41.386c0-4.143-3.358-7.5-7.5-7.5h-41.491v-36.986h41.491c4.142 0 7.5-3.357 7.5-7.5v-41.387h37.098v41.387c0 4.143 3.358 7.5 7.5 7.5h41.491z"/><path d="m124.932 99.662c9.652 0 9.668-15 0-15-9.651 0-9.667 15 0 15z"/><path d="m140.371 124.224c9.652 0 9.668-15 0-15-9.652 0-9.668 15 0 15z"/><path d="m155.809 148.786c9.652 0 9.668-15 0-15-9.651 0-9.667 15 0 15z"/><path d="m307.599 356.662c-9.652 0-9.668 15 0 15 9.652 0 9.668-15 0-15z"/><path d="m323.038 381.224c-9.652 0-9.668 15 0 15 9.651 0 9.667-15 0-15z"/><path d="m338.476 405.786c-9.652 0-9.668 15 0 15 9.652 0 9.668-15 0-15z"/></g></g></svg>